<?xml version="1.0" standalone="no"?>
<!DOCTYPE svg PUBLIC "-//W3C//DTD SVG 20010904//EN"
 "http://www.w3.org/TR/2001/REC-SVG-20010904/DTD/svg10.dtd">
<svg version="1.0" xmlns="http://www.w3.org/2000/svg"
 width="1300.000000pt" height="250.000000pt" viewBox="0 0 1300.000000 250.000000"
 preserveAspectRatio="xMidYMid meet">
<metadata>
Created by potrace 1.10, written by Peter Selinger 2001-2011
</metadata>
<g transform="translate(0.000000,250.000000) scale(0.100000,-0.100000)"
fill="#ffffff" stroke="none">
<path d="M97 2262 c-10 -10 -17 -25 -17 -33 0 -8 6 -3 13 11 12 24 17 25 132
30 l120 6 -116 2 c-101 2 -118 0 -132 -16z"/>
<path d="M467 2262 c-10 -10 -17 -23 -17 -28 0 -4 7 2 16 15 14 20 23 22 57
18 27 -4 36 -2 26 4 -23 15 -65 10 -82 -9z"/>
<path d="M868 2273 c18 -2 45 -2 60 0 15 2 0 4 -33 4 -33 0 -45 -2 -27 -4z"/>
<path d="M1323 2273 c15 -2 39 -2 55 0 15 2 2 4 -28 4 -30 0 -43 -2 -27 -4z"/>
<path d="M1673 2273 c15 -2 37 -2 50 0 12 2 0 4 -28 4 -27 0 -38 -2 -22 -4z"/>
<path d="M1918 2273 c34 -2 88 -2 120 0 31 2 3 3 -63 3 -66 0 -92 -1 -57 -3z"/>
<path d="M2253 2273 c26 -2 68 -2 95 0 26 2 4 3 -48 3 -52 0 -74 -1 -47 -3z"/>
<path d="M2805 2273 c95 -3 123 -7 140 -21 20 -17 20 -17 1 6 -18 21 -26 22
-140 20 l-121 -2 120 -3z"/>
<path d="M3138 2273 c18 -2 45 -2 60 0 15 2 0 4 -33 4 -33 0 -45 -2 -27 -4z"/>
<path d="M3598 2273 c18 -2 45 -2 60 0 15 2 0 4 -33 4 -33 0 -45 -2 -27 -4z"/>
<path d="M3887 2262 c-10 -10 -17 -23 -17 -28 0 -4 7 2 16 14 10 14 26 22 44
22 18 0 34 -8 44 -22 9 -12 16 -18 16 -12 0 19 -36 44 -62 44 -14 0 -32 -8
-41 -18z"/>
<path d="M4295 2271 c44 -3 87 -10 95 -14 8 -5 6 -1 -4 7 -15 12 -40 16 -95
14 l-76 -1 80 -6z"/>
<path d="M985 2253 c43 -22 82 -61 96 -94 6 -17 14 -28 16 -25 7 7 -17 48 -46
79 -25 28 -72 57 -88 57 -4 -1 6 -8 22 -17z"/>
<path d="M1421 2253 c7 -12 15 -20 18 -17 3 2 -3 12 -13 22 -17 16 -18 16 -5
-5z"/>
<path d="M1578 2254 c-16 -8 -28 -17 -28 -20 0 -2 12 2 28 9 15 8 34 17 42 20
13 5 13 5 0 6 -8 0 -27 -7 -42 -15z"/>
<path d="M1750 2266 c0 -2 8 -10 18 -17 15 -13 16 -12 3 4 -13 16 -21 21 -21
13z"/>
<path d="M2660 2255 c-6 -8 -10 -19 -8 -24 1 -6 8 1 15 14 13 28 11 31 -7 10z"/>
<path d="M3725 2247 c22 -12 55 -44 73 -71 17 -26 32 -44 32 -39 0 33 -102
133 -135 133 -5 0 8 -10 30 -23z"/>
<path d="M4159 2249 l-24 -20 30 17 c39 24 40 24 28 24 -6 0 -21 -9 -34 -21z"/>
<path d="M386 2228 c11 -21 15 -47 11 -81 -2 -28 -1 -43 4 -35 14 21 10 87 -6
118 -9 17 -18 30 -21 30 -2 0 3 -14 12 -32z"/>
<path d="M755 2229 c-20 -18 -40 -41 -46 -53 -6 -11 1 -7 15 11 15 17 39 41
54 52 15 11 24 21 20 21 -4 0 -23 -14 -43 -31z"/>
<path d="M2450 2235 c13 -14 26 -25 28 -25 3 0 -5 11 -18 25 -13 14 -26 25
-28 25 -3 0 5 -11 18 -25z"/>
<path d="M3033 2233 c-17 -16 -39 -41 -48 -58 l-17 -30 21 25 c11 14 21 28 21
32 0 4 17 19 37 33 21 14 33 25 27 25 -5 0 -24 -12 -41 -27z"/>
<path d="M3301 2223 c49 -44 66 -76 79 -145 l9 -53 -4 54 c-5 61 -41 129 -84
160 -45 32 -45 25 0 -16z"/>
<path d="M3485 2229 c-35 -31 -71 -86 -62 -95 2 -3 10 9 17 26 7 17 31 46 53
65 22 19 38 35 34 35 -3 0 -22 -14 -42 -31z"/>
<path d="M1193 2224 l-28 -25 33 22 c17 13 32 24 32 26 0 8 -11 1 -37 -23z"/>
<path d="M1515 2203 l-17 -28 23 22 c12 12 20 25 17 28 -3 3 -13 -7 -23 -22z"/>
<path d="M1781 2214 c0 -11 3 -14 6 -6 3 7 2 16 -1 19 -3 4 -6 -2 -5 -13z"/>
<path d="M2131 2214 c0 -11 3 -14 6 -6 3 7 2 16 -1 19 -3 4 -6 -2 -5 -13z"/>
<path d="M2961 2214 c0 -11 3 -14 6 -6 3 7 2 16 -1 19 -3 4 -6 -2 -5 -13z"/>
<path d="M4126 2205 c-3 -9 -6 -24 -5 -33 0 -9 5 -4 10 12 9 32 6 48 -5 21z"/>
<path d="M2651 2199 c-1 -19 30 -49 50 -48 8 0 4 4 -9 9 -12 5 -27 20 -32 32
-5 15 -9 17 -9 7z"/>
<path d="M1421 2177 c-13 -21 -12 -21 5 -5 10 10 16 20 13 22 -3 3 -11 -5 -18
-17z"/>
<path d="M1150 2169 c-7 -11 -10 -23 -7 -25 2 -2 9 7 15 21 14 30 7 33 -8 4z"/>
<path d="M573 2100 c0 -47 2 -66 4 -42 2 23 2 61 0 85 -2 23 -4 4 -4 -43z"/>
<path d="M1735 2160 c-13 -6 -15 -9 -5 -9 8 0 22 4 30 9 18 12 2 12 -25 0z"/>
<path d="M2491 2147 c-1 -39 -26 -93 -48 -106 -10 -6 -13 -11 -6 -11 30 0 74
96 60 132 -3 7 -6 0 -6 -15z"/>
<path d="M2910 2160 c-21 -7 -21 -8 -5 -9 11 0 27 4 35 9 18 11 5 11 -30 0z"/>
<path d="M197 2153 c-4 -3 -7 -17 -7 -30 0 -21 4 -23 49 -23 28 0 52 3 54 8 3
4 -18 5 -45 3 -50 -3 -51 -3 -46 23 6 28 5 30 -5 19z"/>
<path d="M270 2156 c0 -2 7 -7 16 -10 8 -3 12 -2 9 4 -6 10 -25 14 -25 6z"/>
<path d="M829 2131 c-23 -23 -29 -38 -28 -68 l2 -38 7 44 c8 51 38 81 82 81
41 0 67 -17 83 -53 9 -20 14 -25 15 -14 0 33 -54 77 -95 77 -27 0 -44 -8 -66
-29z"/>
<path d="M1300 2150 c-18 -12 -2 -12 25 0 13 6 15 9 5 9 -8 0 -22 -4 -30 -9z"/>
<path d="M1378 2153 c7 -3 16 -2 19 1 4 3 -2 6 -13 5 -11 0 -14 -3 -6 -6z"/>
<path d="M1668 2153 c7 -3 16 -2 19 1 4 3 -2 6 -13 5 -11 0 -14 -3 -6 -6z"/>
<path d="M1934 2145 c-11 -27 7 -35 75 -35 39 0 73 -5 81 -12 12 -11 12 -10 1
5 -11 13 -28 17 -82 17 -53 0 -69 3 -69 14 0 8 6 17 13 19 9 4 9 6 -1 6 -7 1
-15 -6 -18 -14z"/>
<path d="M2018 2153 c6 -2 18 -2 25 0 6 3 1 5 -13 5 -14 0 -19 -2 -12 -5z"/>
<path d="M2068 2153 c6 -2 18 -2 25 0 6 3 1 5 -13 5 -14 0 -19 -2 -12 -5z"/>
<path d="M2328 2153 c12 -2 30 -2 40 0 9 3 -1 5 -23 4 -22 0 -30 -2 -17 -4z"/>
<path d="M2864 2147 c-2 -7 -3 -71 -2 -143 l3 -129 5 143 c3 78 4 142 2 142
-1 0 -5 -6 -8 -13z"/>
<path d="M3153 2153 c9 -2 25 -2 35 0 9 3 1 5 -18 5 -19 0 -27 -2 -17 -5z"/>
<path d="M3561 2134 c-19 -15 -30 -34 -30 -47 l2 -22 4 21 c6 31 37 56 81 64
37 8 37 8 5 9 -21 1 -42 -8 -62 -25z"/>
<path d="M4253 2153 c9 -2 23 -2 30 0 6 3 -1 5 -18 5 -16 0 -22 -2 -12 -5z"/>
<path d="M4348 2153 c7 -3 16 -2 19 1 4 3 -2 6 -13 5 -11 0 -14 -3 -6 -6z"/>
<path d="M686 2135 c-3 -9 -6 -26 -5 -38 1 -14 4 -9 9 13 9 37 7 52 -4 25z"/>
<path d="M1606 2119 c-15 -17 -26 -42 -25 -57 1 -24 2 -23 9 8 5 19 20 45 35
57 14 13 22 23 16 23 -5 0 -21 -14 -35 -31z"/>
<path d="M3100 2130 c-11 -11 -20 -25 -20 -32 0 -6 1 -9 3 -7 1 2 13 16 26 32
28 31 21 37 -9 7z"/>
<path d="M3220 2137 c8 -7 21 -19 29 -27 11 -13 12 -12 3 6 -7 12 -19 24 -29
28 -16 5 -16 4 -3 -7z"/>
<path d="M3681 2132 c14 -12 25 -35 29 -63 7 -43 8 -43 9 -8 1 36 -29 89 -51
89 -6 0 0 -8 13 -18z"/>
<path d="M2742 2115 c0 -16 2 -22 5 -12 2 9 2 23 0 30 -3 6 -5 -1 -5 -18z"/>
<path d="M4223 2130 c3 -11 19 -15 63 -16 l59 -1 -55 4 c-30 2 -58 10 -63 16
-6 8 -7 7 -4 -3z"/>
<path d="M1132 2110 c0 -14 2 -19 5 -12 2 6 2 18 0 25 -3 6 -5 1 -5 -13z"/>
<path d="M1103 2065 c0 -33 2 -45 4 -27 2 18 2 45 0 60 -2 15 -4 0 -4 -33z"/>
<path d="M1473 2080 c0 -25 2 -35 4 -22 2 12 2 32 0 45 -2 12 -4 2 -4 -23z"/>
<path d="M3412 2100 c0 -14 2 -19 5 -12 2 6 2 18 0 25 -3 6 -5 1 -5 -13z"/>
<path d="M3833 2065 c0 -33 2 -45 4 -27 2 18 2 45 0 60 -2 15 -4 0 -4 -33z"/>
<path d="M4122 2100 c0 -14 2 -19 5 -12 2 6 2 18 0 25 -3 6 -5 1 -5 -13z"/>
<path d="M1337 2082 c-10 -11 -17 -36 -17 -61 0 -38 -2 -43 -20 -38 -11 3 -18
1 -14 -4 3 -5 14 -9 25 -9 16 0 19 7 19 49 0 40 4 53 22 65 12 9 18 16 12 16
-6 0 -18 -8 -27 -18z"/>
<path d="M1679 2083 c-13 -17 -13 -17 6 -3 11 8 22 16 24 17 2 2 0 3 -6 3 -6
0 -17 -8 -24 -17z"/>
<path d="M1758 2082 c9 -10 19 -17 21 -16 6 5 -20 34 -30 34 -5 0 -1 -8 9 -18z"/>
<path d="M4396 2078 c10 -14 21 -24 23 -22 3 3 -6 15 -18 27 l-24 22 19 -27z"/>
<path d="M370 2080 c-12 -7 -12 -11 -2 -20 6 -5 10 -7 7 -4 -3 4 0 13 6 21 13
15 10 16 -11 3z"/>
<path d="M1242 2060 c0 -19 2 -27 5 -17 2 9 2 25 0 35 -3 9 -5 1 -5 -18z"/>
<path d="M1420 2085 c0 -5 5 -17 10 -25 5 -8 10 -10 10 -5 0 6 -5 17 -10 25
-5 8 -10 11 -10 5z"/>
<path d="M3260 2061 c0 -15 -9 -41 -21 -57 l-21 -29 26 28 c16 17 26 40 26 58
0 16 -2 29 -5 29 -3 0 -5 -13 -5 -29z"/>
<path d="M2101 2063 c0 -12 -8 -29 -17 -37 -8 -9 -11 -16 -5 -16 15 0 33 38
28 58 -4 13 -5 11 -6 -5z"/>
<path d="M2743 2000 c0 -47 2 -66 4 -42 2 23 2 61 0 85 -2 23 -4 4 -4 -43z"/>
<path d="M2952 2060 c0 -14 2 -19 5 -12 2 6 2 18 0 25 -3 6 -5 1 -5 -13z"/>
<path d="M3072 2060 c0 -14 2 -19 5 -12 2 6 2 18 0 25 -3 6 -5 1 -5 -13z"/>
<path d="M981 2044 c0 -11 3 -14 6 -6 3 7 2 16 -1 19 -3 4 -6 -2 -5 -13z"/>
<path d="M1660 2021 c0 -22 -5 -42 -12 -44 -8 -3 -6 -6 5 -6 14 -1 17 8 17 44
0 25 -2 45 -5 45 -3 0 -5 -18 -5 -39z"/>
<path d="M2291 2044 c0 -11 3 -14 6 -6 3 7 2 16 -1 19 -3 4 -6 -2 -5 -13z"/>
<path d="M682 2025 c0 -16 2 -22 5 -12 2 9 2 23 0 30 -3 6 -5 -1 -5 -18z"/>
<path d="M1783 1975 c0 -44 2 -61 4 -37 2 23 2 59 0 80 -2 20 -4 1 -4 -43z"/>
<path d="M3412 2030 c0 -14 2 -19 5 -12 2 6 2 18 0 25 -3 6 -5 1 -5 -13z"/>
<path d="M4140 2046 c0 -3 9 -10 20 -16 11 -6 20 -8 20 -6 0 3 -9 10 -20 16
-11 6 -20 8 -20 6z"/>
<path d="M394 2032 c4 -7 12 -34 17 -60 l8 -47 -3 48 c-2 27 -9 54 -16 60 -10
9 -11 9 -6 -1z"/>
<path d="M3530 2034 c0 -6 7 -19 16 -30 14 -18 14 -18 3 6 -14 31 -19 36 -19
24z"/>
<path d="M4422 2020 c0 -14 2 -19 5 -12 2 6 2 18 0 25 -3 6 -5 1 -5 -13z"/>
<path d="M1132 2010 c0 -14 2 -19 5 -12 2 6 2 18 0 25 -3 6 -5 1 -5 -13z"/>
<path d="M1470 2022 c0 -22 30 -86 53 -110 24 -26 76 -56 83 -49 3 2 -9 10
-25 16 -41 17 -69 50 -91 107 -10 27 -19 43 -20 36z"/>
<path d="M1590 2023 c0 -5 10 -18 23 -29 l22 -19 -20 25 c-11 14 -21 27 -22
29 -2 2 -3 0 -3 -6z"/>
<path d="M3081 2023 c-1 -13 46 -53 63 -53 6 0 -3 9 -20 19 -18 11 -34 25 -37
33 -3 8 -6 9 -6 1z"/>
<path d="M190 1995 c0 -24 3 -25 54 -25 37 0 56 4 59 14 9 23 -15 36 -65 36
-45 0 -48 -2 -48 -25z m105 0 c0 -5 -21 -11 -47 -13 -39 -3 -48 0 -48 13 0 13
9 16 48 13 26 -2 47 -7 47 -13z"/>
<path d="M829 1998 c14 -16 32 -28 40 -27 14 0 14 1 1 6 -8 3 -26 15 -40 27
l-25 21 24 -27z"/>
<path d="M959 2004 c-7 -9 -22 -20 -34 -24 -14 -6 -15 -9 -4 -9 8 -1 26 10 39
24 13 14 21 25 18 25 -3 0 -12 -7 -19 -16z"/>
<path d="M3356 1975 c-10 -25 -34 -59 -55 -76 -20 -17 -27 -27 -16 -21 39 20
101 108 93 133 -2 5 -11 -12 -22 -36z"/>
<path d="M3689 2004 c-7 -9 -22 -20 -34 -24 -14 -6 -15 -9 -4 -9 8 -1 26 10
39 24 13 14 21 25 18 25 -3 0 -12 -7 -19 -16z"/>
<path d="M4218 2013 c18 -2 45 -2 60 0 15 2 0 4 -33 4 -33 0 -45 -2 -27 -4z"/>
<path d="M1931 1993 c-1 -22 2 -23 82 -21 l82 2 -77 3 c-62 3 -78 7 -81 21 -3
12 -5 11 -6 -5z"/>
<path d="M1978 2003 c18 -2 45 -2 60 0 15 2 0 4 -33 4 -33 0 -45 -2 -27 -4z"/>
<path d="M4315 1998 c6 -16 -1 -18 -71 -20 l-79 -2 74 -3 c77 -4 106 6 82 30
-10 10 -11 9 -6 -5z"/>
<path d="M3815 1981 c-9 -30 -54 -81 -90 -102 -16 -11 -24 -19 -18 -19 31 0
136 120 120 137 -3 2 -8 -5 -12 -16z"/>
<path d="M690 1985 c0 -21 50 -84 83 -104 51 -31 56 -25 7 8 -24 16 -54 46
-67 67 -12 22 -23 34 -23 29z"/>
<path d="M3578 1978 c5 -5 16 -8 23 -6 8 3 3 7 -10 11 -17 4 -21 3 -13 -5z"/>
<path d="M588 1973 c12 -2 30 -2 40 0 9 3 -1 5 -23 4 -22 0 -30 -2 -17 -4z"/>
<path d="M1140 1971 c0 -6 4 -13 10 -16 6 -3 7 1 4 9 -7 18 -14 21 -14 7z"/>
<path d="M4008 1973 c12 -2 30 -2 40 0 9 3 -1 5 -23 4 -22 0 -30 -2 -17 -4z"/>
<path d="M663 1952 c9 -10 17 -29 18 -43 0 -13 3 -18 6 -11 8 21 -5 59 -24 66
-16 6 -16 6 0 -12z"/>
<path d="M2112 1955 c4 -6 12 -22 17 -36 6 -15 10 -18 10 -8 1 9 -7 25 -16 36
-10 10 -15 14 -11 8z"/>
<path d="M4139 1953 c-13 -16 -12 -17 4 -4 16 13 21 21 13 21 -2 0 -10 -8 -17
-17z"/>
<path d="M4422 1950 c0 -14 2 -19 5 -12 2 6 2 18 0 25 -3 6 -5 1 -5 -13z"/>
<path d="M2345 1930 c9 -16 18 -30 21 -30 2 0 -2 14 -11 30 -9 17 -18 30 -21
30 -2 0 2 -13 11 -30z"/>
<path d="M1058 1931 c-7 -10 -31 -30 -52 -45 -21 -14 -35 -26 -29 -26 14 0 73
46 90 69 8 12 12 21 9 21 -3 0 -11 -8 -18 -19z"/>
<path d="M3449 1933 c12 -23 77 -73 96 -73 5 0 -6 9 -25 21 -19 11 -46 32 -58
47 -20 23 -22 23 -13 5z"/>
<path d="M1160 1937 c0 -2 15 -16 33 -33 l32 -29 -29 33 c-28 30 -36 37 -36
29z"/>
<path d="M2481 1924 c0 -11 3 -14 6 -6 3 7 2 16 -1 19 -3 4 -6 -2 -5 -13z"/>
<path d="M3010 1917 c14 -16 34 -33 45 -39 21 -11 20 -10 -35 37 l-35 30 25
-28z"/>
<path d="M4095 1899 l-10 -34 -95 -6 -95 -5 92 -2 c88 -2 93 -1 109 23 8 13
14 32 12 41 -2 11 -7 4 -13 -17z"/>
<path d="M4122 1910 c0 -14 2 -19 5 -12 2 6 2 18 0 25 -3 6 -5 1 -5 -13z"/>
<path d="M391 1893 c-10 -26 -10 -27 4 -9 8 11 15 23 15 28 0 15 -7 8 -19 -19z"/>
<path d="M81 1894 c0 -11 3 -14 6 -6 3 7 2 16 -1 19 -3 4 -6 -2 -5 -13z"/>
<path d="M1821 1890 c-2 -34 21 -40 154 -40 128 0 156 6 155 35 0 5 -5 2 -11
-7 -9 -16 -27 -18 -145 -18 -130 0 -135 1 -144 23 -5 13 -9 16 -9 7z"/>
<path d="M2277 1881 c-4 -17 -3 -21 5 -13 5 5 8 16 6 23 -3 8 -7 3 -11 -10z"/>
<path d="M2472 1880 c-15 -25 -59 -26 -84 -3 -22 20 -24 11 -2 -11 22 -22 67
-20 89 4 10 11 16 22 14 25 -3 2 -10 -5 -17 -15z"/>
<path d="M4389 1883 c-13 -16 -12 -17 4 -4 9 7 17 15 17 17 0 8 -8 3 -21 -13z"/>
<path d="M1766 1873 c-6 -14 -5 -15 5 -6 7 7 10 15 7 18 -3 3 -9 -2 -12 -12z"/>
<path d="M2170 1881 c0 -6 4 -13 10 -16 6 -3 7 1 4 9 -7 18 -14 21 -14 7z"/>
<path d="M2750 1880 c0 -14 47 -43 62 -37 8 4 6 6 -4 6 -10 1 -27 10 -38 21
-11 11 -20 16 -20 10z"/>
<path d="M664 1870 c-5 -5 -50 -11 -99 -13 l-90 -3 91 -2 c71 -2 94 1 104 13
14 17 10 21 -6 5z"/>
<path d="M4139 1868 c11 -15 29 -18 115 -16 l101 2 -99 3 c-58 2 -106 9 -115
16 -14 11 -14 10 -2 -5z"/>
<path d="M1345 1860 l-70 -6 65 -2 c36 -1 72 3 80 8 8 5 11 9 5 8 -5 -1 -41
-4 -80 -8z"/>
<path d="M3090 1860 c8 -5 22 -9 30 -9 10 0 8 3 -5 9 -27 12 -43 12 -25 0z"/>
<path d="M3225 1860 c-13 -6 -15 -9 -5 -9 8 0 22 4 30 9 18 12 2 12 -25 0z"/>
<path d="M168 1853 c34 -2 90 -2 125 0 34 2 6 3 -63 3 -69 0 -97 -1 -62 -3z"/>
<path d="M838 1853 c7 -3 16 -2 19 1 4 3 -2 6 -13 5 -11 0 -14 -3 -6 -6z"/>
<path d="M938 1853 c7 -3 16 -2 19 1 4 3 -2 6 -13 5 -11 0 -14 -3 -6 -6z"/>
<path d="M1647 1853 c18 -2 50 -2 70 0 21 2 7 4 -32 4 -38 0 -55 -2 -38 -4z"/>
<path d="M2213 1853 c9 -2 25 -2 35 0 9 3 1 5 -18 5 -19 0 -27 -2 -17 -5z"/>
<path d="M3575 1850 c19 -8 83 -14 74 -6 -2 2 -24 6 -49 9 -30 4 -38 3 -25 -3z"/>
<path d="M3668 1853 c7 -3 16 -2 19 1 4 3 -2 6 -13 5 -11 0 -14 -3 -6 -6z"/>
<path d="M883 1843 c9 -2 23 -2 30 0 6 3 -1 5 -18 5 -16 0 -22 -2 -12 -5z"/>
<path d="M3153 1843 c9 -2 25 -2 35 0 9 3 1 5 -18 5 -19 0 -27 -2 -17 -5z"/>
</g>
</svg>
